<?xml version="1.0" encoding="UTF-8"?>
<svg version="1.1" xmlns="http://www.w3.org/2000/svg" width="64" height="64">
<path d="M0 0 C2.1875 1.5 2.1875 1.5 2.6875 3.6875 C2.1875 6.5 2.1875 6.5 0.51171875 7.69921875 C-0.54595703 8.28123047 -0.54595703 8.28123047 -1.625 8.875 C-4.8592848 10.71905936 -5.83535642 11.53562912 -7.9375 14.8125 C-9.00203507 19.29875495 -8.82216674 22.34487823 -6.8125 26.5 C-4.10362393 29.20887607 -1.30176659 30.94921485 2.1875 32.5 C2.5 34.8125 2.5 34.8125 2.1875 37.5 C-1.71744948 40.57862122 -4.86025965 40.90685499 -9.75 40.875 C-10.93464844 40.88273437 -12.11929688 40.89046875 -13.33984375 40.8984375 C-17.0942353 40.46767491 -19.56015283 39.37692707 -22.8125 37.5 C-22.8125 38.16 -22.8125 38.82 -22.8125 39.5 C-30.92031124 40.12279062 -37.47742611 40.53379794 -44.03515625 35.24609375 C-49.13057257 30.24026717 -50.08181732 26.66297651 -50.4375 19.625 C-50.22525844 12.7454459 -48.63649741 8.41033294 -43.8125 3.5 C-37.54530236 -1.85323132 -30.74336755 -0.89599339 -22.8125 -0.5 C-22.8125 0.16 -22.8125 0.82 -22.8125 1.5 C-22.090625 1.005 -21.36875 0.51 -20.625 0 C-14.77520227 -2.93187953 -5.84979773 -2.93187953 0 0 Z M-25.15625 8.109375 C-28.20218161 12.85232565 -29.53548817 18.04501228 -28.37109375 23.609375 C-26.82668881 28.30436601 -24.6557576 31.29728533 -20.8125 34.5 C-20.11125 35.098125 -19.41 35.69625 -18.6875 36.3125 C-14.20088339 38.16566773 -9.60213676 38.04963045 -4.8125 37.5 C-2.54434019 36.56842579 -2.54434019 36.56842579 -0.8125 35.5 C-1.92625 34.63375 -1.92625 34.63375 -3.0625 33.75 C-7.65595885 29.99171549 -10.54654281 27.48452491 -11.8125 21.5 C-11.8125 16.56265274 -11.03560905 12.36773086 -7.8125 8.5 C-5.54193227 6.95763217 -3.26873107 5.75128753 -0.8125 4.5 C-1.1425 3.84 -1.4725 3.18 -1.8125 2.5 C-10.54410679 -0.4105356 -19.13051986 0.89251216 -25.15625 8.109375 Z M-44.1875 9.0625 C-47.42209374 13.91439061 -47.4310871 18.84680118 -46.8125 24.5 C-45.12544305 29.35945753 -42.0635839 32.66594407 -37.8125 35.5 C-34.66319107 36.54976964 -32.42435544 36.60131595 -29.125 36.5625 C-28.13113281 36.55347656 -27.13726562 36.54445312 -26.11328125 36.53515625 C-24.97439453 36.51775391 -24.97439453 36.51775391 -23.8125 36.5 C-24.59625 35.489375 -25.38 34.47875 -26.1875 33.4375 C-30.38806016 27.47079523 -31.26592187 22.07859241 -30.36328125 14.93359375 C-29.51994867 11.2073796 -27.94413655 8.6651573 -25.8125 5.5 C-25.1525 4.51 -24.4925 3.52 -23.8125 2.5 C-32.61346692 1.92706183 -37.95067731 2.33329657 -44.1875 9.0625 Z " fill="#000000" transform="translate(61.8125,12.5)"/>
<path d="M0 0 C1 1 1 1 1.3125 3.375 C1 6 1 6 -0.6875 7.875 C-3.57270838 9.27861489 -4.98731243 8.92054342 -8 8 C-8.36075949 3.55063291 -8.36075949 3.55063291 -6.8125 1.1875 C-4.41628976 -0.38243085 -2.80951486 -0.29573841 0 0 Z " fill="#000000" transform="translate(16,47)"/>
<path d="M0 0 C3.25696479 0.41755959 4.63443291 0.63443291 7 3 C7.1875 5.5625 7.1875 5.5625 7 8 C6 9 6 9 3.625 9.3125 C1 9 1 9 -0.875 7.25 C-2 5 -2 5 -1.75 2.8125 C-1 1 -1 1 0 0 Z " fill="#000000" transform="translate(10,8)"/>
<path d="M0 0 C1.98 0 3.96 0 6 0 C6 2.97 6 5.94 6 9 C4.02 9 2.04 9 0 9 C0 6.03 0 3.06 0 0 Z M2 3 C2 3.99 2 4.98 2 6 C2.66 6 3.32 6 4 6 C4 5.01 4 4.02 4 3 C3.34 3 2.68 3 2 3 Z " fill="#000000" transform="translate(29,55)"/>
<path d="M0 0 C2.97 0 5.94 0 9 0 C9 1.98 9 3.96 9 6 C6.03 6 3.06 6 0 6 C0 4.02 0 2.04 0 0 Z M3 2 C3 2.66 3 3.32 3 4 C3.99 4 4.98 4 6 4 C6 3.34 6 2.68 6 2 C5.01 2 4.02 2 3 2 Z " fill="#000000" transform="translate(0,29)"/>
<path d="M0 0 C1.98 0 3.96 0 6 0 C6 2.97 6 5.94 6 9 C4.02 9 2.04 9 0 9 C0 6.03 0 3.06 0 0 Z M2 3 C2 3.99 2 4.98 2 6 C2.66 6 3.32 6 4 6 C4 5.01 4 4.02 4 3 C3.34 3 2.68 3 2 3 Z " fill="#000000" transform="translate(29,0)"/>
</svg>
